<svg width="27" height="27" viewBox="0 0 27 27" fill="none" xmlns="http://www.w3.org/2000/svg">
<path d="M13.5 10.125V14.3438M23.625 13.5C23.625 14.8296 23.3631 16.1462 22.8543 17.3747C22.3455 18.6031 21.5996 19.7193 20.6595 20.6595C19.7193 21.5996 18.6031 22.3455 17.3747 22.8543C16.1462 23.3631 14.8296 23.625 13.5 23.625C12.1704 23.625 10.8538 23.3631 9.62533 22.8543C8.39691 22.3455 7.28074 21.5996 6.34054 20.6595C5.40035 19.7193 4.65455 18.6031 4.14572 17.3747C3.63689 16.1462 3.375 14.8296 3.375 13.5C3.375 10.8147 4.44174 8.23935 6.34054 6.34054C8.23935 4.44174 10.8147 3.375 13.5 3.375C16.1853 3.375 18.7606 4.44174 20.6595 6.34054C22.5583 8.23935 23.625 10.8147 23.625 13.5ZM13.5 17.7188H13.509V17.7278H13.5V17.7188Z" stroke="#6A5ECC" stroke-width="1.5" stroke-linecap="round" stroke-linejoin="round"/>
</svg>
