<svg width="40" height="40" viewBox="0 0 40 40" fill="none" xmlns="http://www.w3.org/2000/svg">
<circle cx="20" cy="20" r="19" fill="white" stroke="#CBD0DC" stroke-width="2"/>
<path d="M21.2236 17.7569H11.8441C11.5097 17.7569 11.2324 17.4795 11.2324 17.1451C11.2324 16.8108 11.5097 16.5334 11.8441 16.5334H21.2236C21.558 16.5334 21.8353 16.8108 21.8353 17.1451C21.8353 17.4795 21.558 17.7569 21.2236 17.7569Z" fill="#0B80F3"/>
<path d="M16.737 24.2818H15.1058C14.7714 24.2818 14.4941 24.0044 14.4941 23.6701C14.4941 23.3357 14.7714 23.0583 15.1058 23.0583H16.737C17.0714 23.0583 17.3488 23.3357 17.3488 23.6701C17.3488 24.0044 17.0714 24.2818 16.737 24.2818Z" fill="#0B80F3"/>
<path d="M22.0382 24.2818H18.7758C18.4414 24.2818 18.1641 24.0044 18.1641 23.6701C18.1641 23.3357 18.4414 23.0583 18.7758 23.0583H22.0382C22.3726 23.0583 22.6499 23.3357 22.6499 23.6701C22.6499 24.0044 22.3726 24.2818 22.0382 24.2818Z" fill="#0B80F3"/>
<path d="M24.5349 27.5442H15.4654C12.2193 27.5442 11.2324 26.5655 11.2324 23.352V16.6478C11.2324 13.4343 12.2193 12.4556 15.4654 12.4556H21.2236C21.558 12.4556 21.8353 12.7329 21.8353 13.0673C21.8353 13.4017 21.558 13.679 21.2236 13.679H15.4654C12.9044 13.679 12.4558 14.1194 12.4558 16.6478V23.3439C12.4558 25.8722 12.9044 26.3127 15.4654 26.3127H24.5267C27.0877 26.3127 27.5363 25.8722 27.5363 23.3439V20.0162C27.5363 19.6818 27.8136 19.4045 28.148 19.4045C28.4824 19.4045 28.7597 19.6818 28.7597 20.0162V23.3439C28.7679 26.5655 27.781 27.5442 24.5349 27.5442Z" fill="#0B80F3"/>
<path d="M28.1561 15.9219H23.6703C23.3359 15.9219 23.0586 15.6446 23.0586 15.3102C23.0586 14.9758 23.3359 14.6985 23.6703 14.6985H28.1561C28.4905 14.6985 28.7678 14.9758 28.7678 15.3102C28.7678 15.6446 28.4905 15.9219 28.1561 15.9219Z" fill="#0B80F3"/>
<path d="M25.9125 18.1648C25.5781 18.1648 25.3008 17.8875 25.3008 17.5531V13.0673C25.3008 12.7329 25.5781 12.4556 25.9125 12.4556C26.2469 12.4556 26.5242 12.7329 26.5242 13.0673V17.5531C26.5242 17.8875 26.2469 18.1648 25.9125 18.1648Z" fill="#0B80F3"/>
</svg>
