<svg width="28" height="28" viewBox="0 0 28 28" fill="none" xmlns="http://www.w3.org/2000/svg">
<path d="M19.3559 7.91875L12.3471 14.9275L13.8941 15.8559L14.8216 17.4029L21.8304 10.3941L19.3559 7.91875ZM20.594 6.6815L23.0685 9.156L23.6871 8.53737C23.8512 8.37329 23.9433 8.15077 23.9433 7.91875C23.9433 7.68673 23.8512 7.46421 23.6871 7.30013L22.4499 6.06375C22.2858 5.89971 22.0633 5.80756 21.8313 5.80756C21.5992 5.80756 21.3767 5.89971 21.2126 6.06375L20.594 6.68237V6.6815ZM11.109 16.1656L10.6943 16.5813V19.0557H13.1687L13.5844 18.6401L12.6569 17.094L11.1099 16.1656H11.109ZM23.0694 4.207L25.5439 6.6815C25.872 7.00967 26.0563 7.45471 26.0563 7.91875C26.0563 8.38279 25.872 8.82783 25.5439 9.156L13.895 20.8057H8.94512V15.8559L20.594 4.207C20.9222 3.87893 21.3672 3.69462 21.8313 3.69462C22.2953 3.69462 22.7403 3.87893 23.0685 4.207H23.0694ZM15.75 2.625C15.75 2.85706 15.6578 3.07962 15.4937 3.24372C15.3296 3.40781 15.1071 3.5 14.875 3.5H4.375C3.89112 3.5 3.5 3.8885 3.5 4.368V23.632C3.5 24.1019 3.892 24.5 4.375 24.5H23.625C24.1089 24.5 24.5 24.1115 24.5 23.632V16.625C24.5 16.3929 24.5922 16.1704 24.7563 16.0063C24.9204 15.8422 25.1429 15.75 25.375 15.75C25.6071 15.75 25.8296 15.8422 25.9937 16.0063C26.1578 16.1704 26.25 16.3929 26.25 16.625V24.4956C26.25 25.4643 25.4625 26.25 24.5079 26.25H3.49125C2.52963 26.25 1.75 25.4651 1.75 24.4956V3.50438C1.75 2.53575 2.5375 1.75 3.49212 1.75H14.875C15.1071 1.75 15.3296 1.84219 15.4937 2.00628C15.6578 2.17038 15.75 2.39294 15.75 2.625Z" fill="black"/>
</svg>
