<svg width="20" height="22" viewBox="0 0 20 22" fill="none" xmlns="http://www.w3.org/2000/svg">
<path d="M3.08367 10.2433C3.75121 10.2433 4.29429 9.64465 4.29429 8.90882C4.29429 8.17298 3.75121 7.57434 3.08367 7.57434C2.41613 7.57434 1.87305 8.17298 1.87305 8.90882C1.87305 9.64465 2.41613 10.2433 3.08367 10.2433ZM3.08367 8.22064C3.42792 8.22064 3.70798 8.52935 3.70798 8.90882C3.70798 9.28828 3.42792 9.59699 3.08367 9.59699C2.73943 9.59699 2.45936 9.28828 2.45936 8.90882C2.45936 8.52935 2.73943 8.22064 3.08367 8.22064ZM6.75357 10.2433C7.42111 10.2433 7.9642 9.64465 7.9642 8.90882C7.9642 8.17298 7.42111 7.57434 6.75357 7.57434C6.08603 7.57434 5.54295 8.17298 5.54295 8.90882C5.54295 9.64465 6.08599 10.2433 6.75357 10.2433ZM6.75357 8.22064C7.09782 8.22064 7.37788 8.52935 7.37788 8.90882C7.37788 9.28828 7.09782 9.59699 6.75357 9.59699C6.40933 9.59699 6.12926 9.28828 6.12926 8.90882C6.12926 8.52935 6.40929 8.22064 6.75357 8.22064ZM10.4234 10.2433C11.091 10.2433 11.6341 9.64465 11.6341 8.90882C11.6341 8.17298 11.091 7.57434 10.4234 7.57434C9.7559 7.57434 9.21281 8.17298 9.21281 8.90882C9.21281 9.64465 9.7559 10.2433 10.4234 10.2433ZM10.4234 8.22064C10.7677 8.22064 11.0477 8.52935 11.0477 8.90882C11.0477 9.28828 10.7677 9.59699 10.4234 9.59699C10.0792 9.59699 9.79913 9.28828 9.79913 8.90882C9.79913 8.52935 10.0792 8.22064 10.4234 8.22064ZM15.304 8.90882C15.304 8.17298 14.7609 7.57434 14.0933 7.57434C13.4258 7.57434 12.8827 8.17298 12.8827 8.90882C12.8827 9.64465 13.4258 10.2433 14.0933 10.2433C14.7609 10.2433 15.304 9.64465 15.304 8.90882ZM13.469 8.90882C13.469 8.52935 13.7491 8.22064 14.0933 8.22064C14.4375 8.22064 14.7176 8.52935 14.7176 8.90882C14.7176 9.28828 14.4375 9.59699 14.0933 9.59699C13.7491 9.59699 13.469 9.28828 13.469 8.90882ZM3.08367 13.9937C3.75121 13.9937 4.29429 13.395 4.29429 12.6592C4.29429 11.9234 3.75121 11.3247 3.08367 11.3247C2.41613 11.3247 1.87305 11.9234 1.87305 12.6592C1.87305 13.395 2.41613 13.9937 3.08367 13.9937ZM3.08367 11.971C3.42792 11.971 3.70798 12.2797 3.70798 12.6592C3.70798 13.0387 3.42792 13.3474 3.08367 13.3474C2.73943 13.3474 2.45936 13.0387 2.45936 12.6592C2.45936 12.2797 2.73943 11.971 3.08367 11.971ZM6.75357 13.9937C7.42111 13.9937 7.9642 13.395 7.9642 12.6592C7.9642 11.9234 7.42111 11.3247 6.75357 11.3247C6.08603 11.3247 5.54295 11.9234 5.54295 12.6592C5.54295 13.395 6.08599 13.9937 6.75357 13.9937ZM6.75357 11.971C7.09782 11.971 7.37788 12.2797 7.37788 12.6592C7.37788 13.0387 7.09782 13.3474 6.75357 13.3474C6.40933 13.3474 6.12926 13.0387 6.12926 12.6592C6.12926 12.2797 6.40929 11.971 6.75357 11.971ZM3.08367 17.744C3.75121 17.744 4.29429 17.1454 4.29429 16.4095C4.29429 15.6737 3.75121 15.0751 3.08367 15.0751C2.41613 15.0751 1.87305 15.6737 1.87305 16.4095C1.87305 17.1454 2.41613 17.744 3.08367 17.744ZM3.08367 15.7214C3.42792 15.7214 3.70798 16.0301 3.70798 16.4095C3.70798 16.789 3.42792 17.0977 3.08367 17.0977C2.73943 17.0977 2.45936 16.789 2.45936 16.4095C2.45936 16.0301 2.73943 15.7214 3.08367 15.7214ZM5.55233 17.7336C5.66525 17.8581 5.85389 17.8582 5.96689 17.7336L6.75353 16.8665L7.54017 17.7336C7.80761 18.0284 8.22202 17.5712 7.95474 17.2766L7.1681 16.4095L7.95474 15.5424C8.22194 15.2479 7.80792 14.7903 7.54017 15.0854L6.75353 15.9526L5.96689 15.0854C5.69969 14.7909 5.28454 15.2473 5.55233 15.5424L6.33897 16.4095L5.55233 17.2766C5.49736 17.3372 5.46648 17.4194 5.46648 17.5051C5.46648 17.5908 5.49736 17.673 5.55233 17.7336Z" fill="#E11414"/>
<path d="M18.8305 14.5575C18.7017 14.1657 18.1504 14.3858 18.2792 14.7777C18.4533 15.3071 18.5423 15.8637 18.5441 16.4322C18.5522 19.1048 16.516 21.3537 14.0931 21.3537C11.646 21.3537 9.6509 19.1642 9.6427 16.4652C9.63453 13.7849 11.6627 11.5437 14.0938 11.5437C15.4791 11.5437 16.7607 12.2358 17.6117 13.4442C17.8435 13.7734 18.3066 13.3771 18.0748 13.0479C17.8752 12.7643 17.6514 12.5023 17.4066 12.2656V3.43821C17.4066 2.67916 16.8463 2.0616 16.1577 2.0616H14.397V0.927259C14.397 -0.307255 12.6571 -0.310917 12.6571 0.927259V2.06164H9.57246V0.927259C9.57246 -0.307255 7.83255 -0.310917 7.83255 0.927259V2.06164H4.7479V0.927259C4.7479 -0.307211 3.00799 -0.310917 3.00799 0.927259V2.06164H1.24885C0.560244 2.06164 0 2.6792 0 3.43825V14.9695C0 15.3863 0.586315 15.3863 0.586315 14.9695V6.57723H16.8203V11.7773C15.546 10.8704 13.9207 10.6533 12.4838 11.1857C12.0825 11.3345 11.7 11.5391 11.3456 11.7944C11.119 11.4993 10.7862 11.3247 10.4236 11.3247C9.75601 11.3247 9.21293 11.9233 9.21293 12.6592C9.21293 13.0833 9.39852 13.4793 9.70012 13.7284C8.91915 15.2549 8.84855 17.1551 9.50921 18.7486H1.24885C0.883538 18.7486 0.586315 18.4209 0.586315 18.0182V16.5637C0.586315 16.1469 0 16.1469 0 16.5637V18.0182C0 18.7773 0.560244 19.3949 1.24885 19.3949H9.82614C10.7184 20.9591 12.2981 22.0002 14.0932 22C16.8452 22 19.1396 19.464 19.1305 16.43C19.1285 15.787 19.0275 15.157 18.8305 14.5575ZM13.2435 0.927259C13.2435 0.525909 13.8107 0.525306 13.8107 0.927259V3.72952C13.8107 4.13087 13.2435 4.13147 13.2435 3.72952V0.927259ZM8.41886 0.927259C8.41886 0.525952 8.98614 0.525306 8.98614 0.927259V3.72952C8.98614 4.13367 8.41886 4.13367 8.41886 3.72952V0.927259ZM3.59431 0.927259C3.59431 0.525909 4.16159 0.525349 4.16159 0.927259V3.72952C4.16159 4.13087 3.59431 4.13147 3.59431 3.72952V0.927259ZM0.586315 5.93094V3.43821C0.586315 3.03552 0.883538 2.70789 1.24885 2.70789H3.00799V3.72948C3.00799 4.96399 4.7479 4.96765 4.7479 3.72948V2.70789H7.83255V3.72948C7.83255 4.96614 9.57246 4.96614 9.57246 3.72948V2.70789H12.6571V3.72948C12.6571 4.96395 14.397 4.96765 14.397 3.72948V2.70789H16.1577C16.523 2.70789 16.8203 3.03552 16.8203 3.43821V5.93094H0.586315ZM9.79924 12.6592C9.79924 12.2797 10.0793 11.971 10.4236 11.971C10.5967 11.971 10.7567 12.0483 10.8722 12.1805C10.5519 12.4751 10.2654 12.8117 10.0192 13.1829C9.88227 13.0538 9.79924 12.8628 9.79924 12.6592Z" fill="#E11414"/>
<path d="M14.0914 18.7411C13.9689 18.7412 13.8476 18.768 13.7346 18.8201C13.6215 18.8722 13.519 18.9485 13.4329 19.0445C13.2573 19.2393 13.161 19.4979 13.1618 19.7724C13.1627 20.047 13.2605 20.3048 13.4373 20.4983C13.5236 20.5933 13.626 20.6686 13.7388 20.7198C13.8516 20.7711 13.9724 20.7972 14.0944 20.7969H14.0976C14.2201 20.7968 14.3414 20.7699 14.4544 20.7179C14.5675 20.6658 14.67 20.5895 14.7561 20.4935C14.9317 20.2987 15.028 20.0401 15.0271 19.7655C15.0262 19.491 14.9285 19.2332 14.7517 19.0397C14.575 18.8462 14.3396 18.7419 14.0914 18.7411ZM14.4409 19.7677C14.4411 19.8178 14.4324 19.8675 14.4151 19.9139C14.3979 19.9603 14.3724 20.0024 14.3403 20.0379C14.3083 20.0735 14.2702 20.1019 14.2283 20.1212C14.1863 20.1405 14.1412 20.1505 14.0957 20.1505H14.0945C14.0492 20.1507 14.0043 20.1409 13.9625 20.1219C13.9206 20.1029 13.8825 20.0749 13.8505 20.0397C13.8181 20.0044 13.7924 19.9625 13.7749 19.9162C13.7573 19.87 13.7483 19.8204 13.7482 19.7702C13.7479 19.6683 13.7837 19.5723 13.8489 19.5001C13.914 19.4278 14.0009 19.3877 14.0934 19.3874H14.0946C14.1867 19.3874 14.2733 19.4267 14.3387 19.4983C14.371 19.5335 14.3967 19.5755 14.4143 19.6217C14.4318 19.668 14.4408 19.7176 14.4409 19.7677ZM15.0425 13.1455C15.0425 12.5692 14.6172 12.1005 14.0945 12.1005C13.5718 12.1005 13.1465 12.5692 13.1465 13.1455V17.4584C13.1465 18.0346 13.5718 18.5034 14.0945 18.5034C14.6172 18.5034 15.0425 18.0346 15.0425 17.4584V13.1455ZM14.4562 17.4584C14.4562 17.6783 14.2939 17.8571 14.0945 17.8571C13.8951 17.8571 13.7328 17.6783 13.7328 17.4584V13.1455C13.7328 12.9256 13.8951 12.7468 14.0945 12.7468C14.2939 12.7468 14.4562 12.9256 14.4562 13.1455V17.4584Z" fill="#E11414"/>
</svg>
