<svg width="20" height="20" viewBox="0 0 20 20" fill="none" xmlns="http://www.w3.org/2000/svg">
<g clip-path="url(#clip0_872_3138)">
<path d="M9.375 0C7.86375 0 6.6025 1.07375 6.3125 2.5H0V3.75H6.3125C6.6025 5.17625 7.8625 6.25 9.375 6.25C10.8875 6.25 12.1475 5.17625 12.4375 3.75H20V2.5H12.4375C12.1475 1.07375 10.8862 0 9.375 0Z" fill="#32343D"/>
<path d="M15.625 7.5C14.1137 7.5 12.8525 8.57375 12.5625 10H0V11.25H12.5625C12.8525 12.6762 14.1125 13.75 15.625 13.75C17.1375 13.75 18.3975 12.6762 18.6875 11.25H20V10H18.6875C18.3975 8.57375 17.1362 7.5 15.625 7.5Z" fill="#32343D"/>
<path d="M6.875 13.75C5.36375 13.75 4.1025 14.8238 3.8125 16.25H0V17.5H3.8125C4.1025 18.9262 5.3625 20 6.875 20C8.3875 20 9.6475 18.9262 9.9375 17.5H20V16.25H9.9375C9.6475 14.8238 8.38625 13.75 6.875 13.75Z" fill="#32343D"/>
</g>
<defs>
<clipPath id="clip0_872_3138">
<rect width="20" height="20" fill="white"/>
</clipPath>
</defs>
</svg>
