<svg width="29" height="30" viewBox="0 0 29 30" fill="none" xmlns="http://www.w3.org/2000/svg">
<path d="M27.8354 11.3333C27.5713 11.3367 27.319 11.4432 27.1322 11.63C26.9454 11.8168 26.8389 12.0691 26.8354 12.3333V20.3333L21.2621 13.96C20.908 13.583 20.4804 13.2825 20.0057 13.0772C19.5311 12.8718 19.0193 12.7658 18.5021 12.7658C17.9849 12.7658 17.4732 12.8718 16.9985 13.0772C16.5238 13.2825 16.0962 13.583 15.7421 13.96L11.9155 18.3333L10.6621 16.8133C10.3168 16.399 9.88454 16.0657 9.39607 15.8369C8.9076 15.6082 8.37482 15.4896 7.83545 15.4896C7.29608 15.4896 6.7633 15.6082 6.27483 15.8369C5.78637 16.0657 5.35415 16.399 5.00878 16.8133L2.16878 20.24V6.99996C2.1723 5.85177 2.62998 4.75161 3.44187 3.93971C4.25377 3.12782 5.35393 2.67014 6.50212 2.66663H17.1688C17.434 2.66663 17.6884 2.56127 17.8759 2.37373C18.0634 2.1862 18.1688 1.93184 18.1688 1.66663C18.1688 1.40141 18.0634 1.14706 17.8759 0.959519C17.6884 0.771983 17.434 0.666626 17.1688 0.666626H6.50212C4.82241 0.666626 3.21151 1.33389 2.02378 2.52162C0.836045 3.70935 0.168785 5.32025 0.168785 6.99996V23C0.162488 23.0217 0.162488 23.0448 0.168785 23.0666C0.186345 24.7348 0.861349 26.3286 2.04718 27.5019C3.23301 28.6753 4.8339 29.3334 6.50212 29.3333H22.5021C24.1635 29.33 25.757 28.674 26.9392 27.5067C28.1214 26.3395 28.7976 24.7545 28.8221 23.0933V12.3333C28.8188 12.0714 28.7141 11.821 28.5302 11.6346C28.3462 11.4481 28.0973 11.3402 27.8354 11.3333ZM22.5021 27.3333H6.50212C5.41294 27.3298 4.36501 26.9163 3.56695 26.1751C2.76889 25.4338 2.27923 24.4193 2.19545 23.3333L6.50212 18.0933C6.66343 17.9136 6.86077 17.7698 7.08131 17.6715C7.30184 17.5731 7.54063 17.5222 7.78212 17.5222C8.02361 17.5222 8.26239 17.5731 8.48293 17.6715C8.70346 17.7698 8.90081 17.9136 9.06212 18.0933L11.0755 20.52C11.1678 20.6322 11.2838 20.7227 11.4152 20.785C11.5466 20.8472 11.6901 20.8797 11.8355 20.88C12.1234 20.8641 12.3947 20.7403 12.5955 20.5333L17.1821 15.28C17.3453 15.1081 17.5417 14.9712 17.7595 14.8777C17.9773 14.7842 18.2118 14.736 18.4488 14.736C18.6858 14.736 18.9203 14.7842 19.1381 14.8777C19.3558 14.9712 19.5523 15.1081 19.7155 15.28L26.7421 23.28C26.6752 24.3652 26.2014 25.3852 25.4155 26.1366C24.6296 26.8879 23.5892 27.3152 22.5021 27.3333Z" fill="#666666"/>
<path d="M4.16797 8.33329C4.16797 9.05849 4.38301 9.7674 4.78591 10.3704C5.18881 10.9734 5.76147 11.4433 6.43146 11.7209C7.10146 11.9984 7.8387 12.071 8.54997 11.9295C9.26123 11.788 9.91457 11.4388 10.4274 10.926C10.9402 10.4132 11.2894 9.75989 11.4308 9.04862C11.5723 8.33736 11.4997 7.60012 11.2222 6.93012C10.9447 6.26012 10.4747 5.68747 9.87173 5.28457C9.26875 4.88167 8.55983 4.66663 7.83464 4.66663C6.86217 4.66663 5.92954 5.05293 5.24191 5.74057C4.55428 6.4282 4.16797 7.36083 4.16797 8.33329ZM9.5013 8.33329C9.5013 8.66293 9.40355 8.98516 9.22042 9.25924C9.03728 9.53333 8.77699 9.74695 8.47244 9.87309C8.1679 9.99924 7.83279 10.0322 7.50948 9.96794C7.18618 9.90363 6.88921 9.74489 6.65612 9.5118C6.42304 9.27872 6.2643 8.98175 6.19999 8.65844C6.13568 8.33514 6.16869 8.00003 6.29484 7.69549C6.42098 7.39094 6.6346 7.13065 6.90869 6.94751C7.18277 6.76437 7.505 6.66663 7.83464 6.66663C8.27666 6.66663 8.70059 6.84222 9.01315 7.15478C9.32571 7.46734 9.5013 7.89127 9.5013 8.33329ZM19.8346 6.66663H22.8346V9.66663C22.8346 9.93184 22.94 10.1862 23.1275 10.3737C23.3151 10.5613 23.5694 10.6666 23.8346 10.6666C24.0999 10.6666 24.3542 10.5613 24.5417 10.3737C24.7293 10.1862 24.8346 9.93184 24.8346 9.66663V6.66663H27.8346C28.0999 6.66663 28.3542 6.56127 28.5417 6.37373C28.7293 6.1862 28.8346 5.93184 28.8346 5.66663C28.8346 5.40141 28.7293 5.14706 28.5417 4.95952C28.3542 4.77198 28.0999 4.66663 27.8346 4.66663H24.8346V1.66663C24.8346 1.40141 24.7293 1.14706 24.5417 0.959519C24.3542 0.771983 24.0999 0.666626 23.8346 0.666626C23.5694 0.666626 23.3151 0.771983 23.1275 0.959519C22.94 1.14706 22.8346 1.40141 22.8346 1.66663V4.66663H19.8346C19.5694 4.66663 19.3151 4.77198 19.1275 4.95952C18.94 5.14706 18.8346 5.40141 18.8346 5.66663C18.8346 5.93184 18.94 6.1862 19.1275 6.37373C19.3151 6.56127 19.5694 6.66663 19.8346 6.66663Z" fill="#666666"/>
</svg>
