<svg width="24" height="24" viewBox="0 0 24 24" fill="none" xmlns="http://www.w3.org/2000/svg">
<g clip-path="url(#clip0_990_5097)">
<path d="M21 8.64009H20V7.68002C20 3.43845 16.4183 0 12 0C7.58169 0 3.99997 3.43845 3.99997 7.68002V8.64009H2.99998C2.4477 8.64009 2 9.06989 2 9.60008V17.28V17.2801V20.16C2 21.751 3.34273 23.04 5 23.04H19C20.6573 23.04 22 21.751 22 20.16V17.2801V17.28V9.60008C22 9.06989 21.5523 8.64009 21 8.64009ZM5.99998 7.68002C5.99998 4.49883 8.68625 1.92002 12 1.92002C15.3137 1.92002 18 4.49883 18 7.68002V8.64H5.99998V7.68002ZM20 10.5601V16.32H3.99997V10.5601H20ZM19 21.12H5C4.4473 21.12 4.00002 20.6906 4.00002 20.16V18.2401H20V20.16C20 20.6906 19.5527 21.12 19 21.12Z" fill="#6A5ECC"/>
<path d="M7.99998 15.36C8.55227 15.36 8.99997 14.9302 8.99997 14.4V12.48C8.99997 11.9498 8.55227 11.52 7.99998 11.52C7.4477 11.52 7 11.9498 7 12.48V14.4C6.99995 14.9302 7.4477 15.36 7.99998 15.36Z" fill="#6A5ECC"/>
<path d="M12 15.36C12.5523 15.36 13 14.9302 13 14.4V12.48C13 11.9498 12.5523 11.52 12 11.52C11.4477 11.52 11 11.9498 11 12.48V14.4C11 14.9302 11.4477 15.36 12 15.36Z" fill="#6A5ECC"/>
<path d="M16 15.36C16.5523 15.36 17 14.9302 17 14.4V12.48C17 11.9498 16.5523 11.52 16 11.52C15.4477 11.52 15 11.9498 15 12.48V14.4C15 14.9302 15.4477 15.36 16 15.36Z" fill="#6A5ECC"/>
</g>
<defs>
<clipPath id="clip0_990_5097">
<rect width="24" height="23.04" fill="white"/>
</clipPath>
</defs>
</svg>
