<svg width="24" height="24" viewBox="0 0 24 24" fill="none" xmlns="http://www.w3.org/2000/svg">
<path d="M17.5 10C17.5 6.68629 14.8137 4 11.5 4C8.18629 4 5.5 6.68629 5.5 10V18H17.5V10ZM19.5 18.6667L19.9 19.2C20.0657 19.4209 20.0209 19.7343 19.8 19.9C19.7135 19.9649 19.6082 20 19.5 20H3.5C3.22386 20 3 19.7761 3 19.5C3 19.3918 3.03509 19.2865 3.1 19.2L3.5 18.6667V10C3.5 5.58172 7.08172 2 11.5 2C15.9183 2 19.5 5.58172 19.5 10V18.6667ZM9 21H14C14 22.3807 12.8807 23.5 11.5 23.5C10.1193 23.5 9 22.3807 9 21Z" fill="#4D4D4D"/>
</svg>
