<svg width="21" height="26" viewBox="0 0 21 26" fill="none" xmlns="http://www.w3.org/2000/svg">
<path d="M20.7327 12.8822L19.0715 10.3147C19.0661 10.3041 19.0625 10.2923 19.0568 10.2822C19.0524 10.2741 19.0452 10.2696 19.0405 10.2619C18.88 9.98463 18.6549 9.76256 18.3897 9.62L15.635 8.11159C15.8261 7.48719 15.9346 6.81972 15.9346 6.12341C15.9346 2.74625 13.4969 0 10.5006 0C7.50428 0 5.06579 2.74666 5.06579 6.12341C5.06579 6.82134 5.17504 7.48962 5.36686 8.11525L2.62585 9.61594C2.35615 9.75406 2.13188 9.97425 1.97035 10.2513C1.9653 10.2594 1.95953 10.2659 1.9552 10.2741V10.2749L0.268124 12.8822C0.147792 13.0679 0.0651143 13.281 0.0259332 13.5067C-0.0132479 13.7323 -0.00797673 13.9648 0.0413743 14.1879C0.0907252 14.411 0.182952 14.6191 0.311538 14.7976C0.440125 14.9761 0.601934 15.1207 0.785533 15.221L1.68802 15.7154V20.2272C1.68802 20.9381 2.05219 21.5922 2.61467 21.8888L9.77187 25.8091C9.98821 25.935 10.2334 26 10.5038 26C10.7634 26 11.0086 25.935 11.2249 25.8131L18.3857 21.8928C18.6633 21.7411 18.8975 21.5045 19.0613 21.2099C19.2252 20.9154 19.3122 20.5748 19.3124 20.2272V15.7158L20.2145 15.2214C20.3982 15.1212 20.56 14.9767 20.6885 14.7981C20.8171 14.6196 20.9092 14.4114 20.9584 14.1883C21.0079 13.9653 21.0133 13.7327 20.9742 13.5071C20.9352 13.2815 20.8526 13.0683 20.7323 12.8826L20.7327 12.8822ZM10.4998 0.839312C13.0865 0.839312 15.1904 3.20978 15.1904 6.12381C15.1904 9.03784 13.0865 11.4075 10.5002 11.4075C7.91388 11.4075 5.81035 9.03662 5.81035 6.123C5.81035 3.20937 7.91388 0.838906 10.5002 0.838906L10.4998 0.839312ZM1.11148 14.4678C1.02577 14.421 0.950231 14.3535 0.890209 14.2702C0.830186 14.1869 0.787147 14.0897 0.764136 13.9856C0.741124 13.8815 0.738703 13.7729 0.757042 13.6676C0.775382 13.5623 0.814034 13.4628 0.870266 13.3762L2.38608 11.0321L9.93809 15.1677L8.2831 17.7271C8.19326 17.8662 8.06284 17.9652 7.91471 18.0068C7.76657 18.0484 7.61017 18.0299 7.47291 17.9546L1.11148 14.4678ZM10.1328 25.0737C10.1247 25.0689 10.1162 25.0649 10.1076 25.0616L2.93594 21.1331C2.62946 20.9706 2.43475 20.6172 2.43475 20.2272V16.1249L7.14733 18.7078C7.44166 18.8693 7.77705 18.909 8.09474 18.8199C8.41242 18.7307 8.69214 18.5185 8.88488 18.2203L10.1328 16.2906V25.0737ZM10.5017 14.5421L9.62692 14.0636L4.17447 11.0752L2.91791 10.3862L2.94315 10.3756L5.6582 8.88956C6.55708 10.8782 8.38766 12.2464 10.5002 12.2464C12.6138 12.2464 14.4455 10.8765 15.3437 8.88591L18.0652 10.3756C18.0739 10.3789 18.0796 10.3821 18.085 10.3854L10.5017 14.5421ZM18.5664 20.2272C18.5664 20.6172 18.3717 20.9706 18.0616 21.1372L10.8972 25.0616L10.8756 25.0737V16.3024L12.1155 18.2207C12.3084 18.5188 12.5882 18.7309 12.9059 18.8201C13.2236 18.9092 13.559 18.8696 13.8535 18.7082L18.5664 16.1249V20.2272ZM20.2358 13.9852C20.1896 14.1964 20.0627 14.3719 19.8897 14.4678L13.5279 17.9546C13.3905 18.0297 13.2341 18.0481 13.086 18.0065C12.9378 17.9649 12.8074 17.866 12.7173 17.7271L11.0649 15.1706L18.6169 11.035L20.1305 13.3762C20.2448 13.5521 20.2827 13.7743 20.2362 13.9856L20.2358 13.9852ZM12.1844 9.52778C12.0087 9.52837 11.8346 9.48963 11.6722 9.41383C11.5099 9.33803 11.3625 9.22666 11.2386 9.08619L10.5006 8.25459L9.76214 9.08619C9.5112 9.36843 9.17112 9.52695 8.81656 9.52695C8.46199 9.52695 8.12191 9.36843 7.87098 9.08619C7.62046 8.80339 7.47976 8.42015 7.47976 8.02059C7.47976 7.62103 7.62046 7.2378 7.87098 6.955L8.60941 6.12341L7.87098 5.29141C7.3496 4.70397 7.3496 3.74766 7.87098 3.16022C8.39235 2.57278 9.24112 2.57359 9.76214 3.16022L10.5006 3.99222L11.239 3.16022C11.7427 2.59106 12.6236 2.59025 13.1305 3.16022C13.3809 3.44312 13.5214 3.82632 13.5214 4.22581C13.5214 4.62531 13.3809 5.0085 13.1305 5.29141L12.3921 6.12341L13.1305 6.955C13.3809 7.2379 13.5214 7.6211 13.5214 8.02059C13.5214 8.42009 13.3809 8.80328 13.1305 9.08619C13.0066 9.22653 12.8592 9.33781 12.6969 9.41361C12.5345 9.4894 12.3605 9.52821 12.1848 9.52778H12.1844ZM10.5006 7.24222C10.5958 7.24222 10.6909 7.28284 10.7638 7.36491L11.7654 8.49306C11.989 8.74534 12.3802 8.74534 12.6041 8.49306C12.715 8.36758 12.7773 8.1977 12.7773 8.02059C12.7773 7.84349 12.715 7.6736 12.6041 7.54812L11.6025 6.41956C11.5679 6.38063 11.5404 6.3344 11.5217 6.28351C11.503 6.23263 11.4934 6.17808 11.4934 6.123C11.4934 6.06792 11.503 6.01338 11.5217 5.96249C11.5404 5.9116 11.5679 5.86537 11.6025 5.82644L12.6041 4.69869C12.7151 4.57319 12.7775 4.40322 12.7775 4.22602C12.7775 4.04881 12.7151 3.87884 12.6041 3.75334C12.3806 3.50106 11.9893 3.50106 11.7654 3.75334L10.7638 4.8815C10.7292 4.92046 10.6882 4.95137 10.643 4.97246C10.5979 4.99355 10.5495 5.0044 10.5006 5.0044C10.4517 5.0044 10.4033 4.99355 10.3581 4.97246C10.3129 4.95137 10.2719 4.92046 10.2374 4.8815L9.23571 3.75375C9.12434 3.62877 8.97356 3.5586 8.81638 3.5586C8.65919 3.5586 8.50841 3.62877 8.39704 3.75375C8.286 3.87925 8.22365 4.04922 8.22365 4.22642C8.22365 4.40362 8.286 4.5736 8.39704 4.69909L9.39833 5.82725C9.43291 5.86618 9.46034 5.91242 9.47906 5.9633C9.49777 6.01419 9.50741 6.06873 9.50741 6.12381C9.50741 6.17889 9.49777 6.23344 9.47906 6.28432C9.46034 6.33521 9.43291 6.38144 9.39833 6.42037L8.39704 7.54853C8.28578 7.67384 8.22325 7.84381 8.22322 8.02106C8.22318 8.19831 8.28564 8.36831 8.39686 8.49367C8.50807 8.61903 8.65893 8.68948 8.81625 8.68952C8.97356 8.68956 9.12445 8.61918 9.23571 8.49388L10.237 7.36531C10.3098 7.28325 10.405 7.24262 10.5002 7.24262L10.5006 7.24222Z" fill="#6A5ECC"/>
</svg>
