<svg width="27" height="27" viewBox="0 0 27 27" fill="none" xmlns="http://www.w3.org/2000/svg">
<path d="M21 7.01923C21 9.23882 17.4179 11.0385 13 11.0385C8.58206 11.0385 5 9.23882 5 7.01923M21 7.01923C21 4.79964 17.4179 3 13 3C8.58206 3 5 4.79964 5 7.01923M21 7.01923V17.9808C21 20.2004 17.4179 22 13 22C8.58206 22 5 20.2004 5 17.9808V7.01923M21 7.01923V10.6731M5 7.01923V10.6731M21 10.6731V14.3269C21 16.5465 17.4179 18.3462 13 18.3462C8.58206 18.3462 5 16.5465 5 14.3269V10.6731M21 10.6731C21 12.8927 17.4179 14.6923 13 14.6923C8.58206 14.6923 5 12.8927 5 10.6731" stroke="#6A5ECC" stroke-width="1.5" stroke-linecap="round" stroke-linejoin="round"/>
</svg>
