<svg width="24" height="26" viewBox="0 0 24 26" fill="none" xmlns="http://www.w3.org/2000/svg">
<path d="M23.0541 15.3358L21.0726 11.9038C21.0264 11.8238 20.9542 11.7618 20.868 11.7283L16.6843 10.1016C16.8175 9.65178 16.885 9.18507 16.8848 8.71594C16.8848 6.02225 14.6933 3.83079 11.9996 3.83079C9.30592 3.83079 7.11446 6.02225 7.11446 8.71594C7.1142 9.18507 7.18173 9.65178 7.31494 10.1016L3.13123 11.7283C3.04504 11.7618 2.97286 11.8238 2.92663 11.9038L0.945094 15.3358C0.91579 15.3866 0.897805 15.443 0.892374 15.5014C0.886943 15.5597 0.894194 15.6185 0.91363 15.6738C0.933065 15.729 0.964225 15.7794 1.00497 15.8215C1.04572 15.8636 1.09509 15.8964 1.14969 15.9176L2.87214 16.5873V22.1773C2.87215 22.2592 2.89689 22.3392 2.94312 22.4067C2.98935 22.4743 3.05492 22.5263 3.13123 22.556L11.8523 25.947C11.947 25.9838 12.0521 25.9838 12.1468 25.947L20.8679 22.556C20.9442 22.5263 21.0098 22.4743 21.056 22.4067C21.1022 22.3392 21.127 22.2592 21.127 22.1773V16.5873L22.8494 15.9176C22.904 15.8964 22.9534 15.8636 22.9941 15.8215C23.0348 15.7794 23.066 15.729 23.0854 15.6737C23.1049 15.6185 23.1122 15.5597 23.1068 15.5014C23.1014 15.443 23.0834 15.3866 23.0541 15.3358ZM11.9997 4.64328C14.2454 4.64328 16.0723 6.47029 16.0723 8.71594C16.0723 10.9616 14.2453 12.7886 11.9997 12.7886C9.75402 12.7886 7.92701 10.9616 7.92701 8.71594C7.92701 6.47029 9.75397 4.64328 11.9997 4.64328ZM11.9997 13.6011C13.9353 13.6011 15.6117 12.4694 16.4018 10.833L19.6079 12.1038L11.9997 15.0621L4.39136 12.1038L7.59744 10.833C8.38759 12.4694 10.0639 13.6011 11.9997 13.6011ZM1.88561 15.3319L3.45607 12.6119L11.411 15.705L9.84055 18.4251L1.88561 15.3319ZM3.68474 16.9033L9.87097 19.3087C9.9614 19.3438 10.0614 19.3454 10.1529 19.3132C10.2445 19.281 10.3215 19.2172 10.37 19.1332L11.5934 17.0142V24.9745L3.68474 21.8994V16.9033ZM20.3146 21.8994L12.4059 24.9745V17.0142L13.6293 19.1332C13.6779 19.2172 13.7548 19.2811 13.8464 19.3133C13.9379 19.3455 14.0379 19.3439 14.1284 19.3087L20.3146 16.9033V21.8994ZM14.1588 18.4251L12.5883 15.705L20.5433 12.6119L22.1137 15.3319L14.1588 18.4251ZM10.9889 11.3548C11.2701 11.3548 11.5348 11.2451 11.7341 11.0457L14.901 7.87886C15.3125 7.46733 15.3125 6.79773 14.9009 6.3861C14.7016 6.18678 14.4366 6.07699 14.1547 6.07699C13.8728 6.07699 13.6077 6.18678 13.4083 6.3861L11.0772 8.71731L10.455 7.93442C10.3565 7.80988 10.231 7.70932 10.0879 7.64033C9.94492 7.57134 9.7881 7.53572 9.6293 7.53614C9.39119 7.53654 9.16018 7.61723 8.97361 7.76516C8.51861 8.12698 8.44274 8.7915 8.80441 9.24645L10.1299 10.9145C10.2279 11.0508 10.3569 11.1618 10.5062 11.2384C10.6556 11.3149 10.821 11.3549 10.9889 11.3548ZM9.47914 8.40115C9.52171 8.36702 9.57468 8.34847 9.62925 8.34859C9.70364 8.34859 9.77275 8.3819 9.81886 8.43989L10.7243 9.57932C10.7599 9.62414 10.8046 9.66092 10.8554 9.68725C10.9062 9.71359 10.9621 9.72889 11.0192 9.73215C11.0764 9.73541 11.1336 9.72656 11.1871 9.70617C11.2405 9.68578 11.2891 9.65433 11.3296 9.61386L13.9828 6.96064C14.0286 6.91473 14.0897 6.88949 14.1546 6.88949C14.2196 6.88949 14.2805 6.91478 14.3264 6.96059C14.3719 7.00621 14.3975 7.06802 14.3975 7.13247C14.3975 7.19692 14.3719 7.25874 14.3264 7.30437L11.1595 10.4712C11.1373 10.4939 11.1107 10.5119 11.0814 10.5241C11.052 10.5363 11.0205 10.5425 10.9888 10.5423C10.9493 10.5426 10.9104 10.5333 10.8754 10.5151C10.8404 10.4969 10.8103 10.4704 10.7879 10.4379C10.7831 10.431 10.7781 10.4243 10.7729 10.4177L9.44044 8.74093C9.40062 8.69069 9.38234 8.62673 9.38959 8.56304C9.39684 8.49936 9.42904 8.44114 9.47914 8.40115ZM11.5934 2.33436V0.431641C11.5934 0.323896 11.6362 0.220565 11.7124 0.144378C11.7886 0.0681918 11.8919 0.0253906 11.9997 0.0253906C12.1074 0.0253906 12.2107 0.0681918 12.2869 0.144378C12.3631 0.220565 12.4059 0.323896 12.4059 0.431641V2.33436C12.4059 2.44211 12.3631 2.54544 12.2869 2.62163C12.2107 2.69781 12.1074 2.74061 11.9997 2.74061C11.8919 2.74061 11.7886 2.69781 11.7124 2.62163C11.6362 2.54544 11.5934 2.44211 11.5934 2.33436ZM7.49136 1.69117C7.43748 1.59785 7.42289 1.48696 7.45078 1.38289C7.47866 1.27881 7.54676 1.19008 7.64007 1.13621C7.73338 1.08233 7.84427 1.06774 7.94835 1.09562C8.05242 1.12351 8.14116 1.1916 8.19503 1.28492L9.14637 2.93272C9.20024 3.02603 9.21484 3.13692 9.18695 3.241C9.15906 3.34508 9.09097 3.43381 8.99765 3.48768C8.90434 3.54155 8.79345 3.55615 8.68937 3.52826C8.5853 3.50037 8.49656 3.43228 8.44269 3.33897L7.49136 1.69117ZM4.41995 4.27807C4.44662 4.23186 4.48213 4.19135 4.52445 4.15887C4.56677 4.12639 4.61508 4.10256 4.66662 4.08875C4.71815 4.07495 4.7719 4.07143 4.8248 4.0784C4.87769 4.08537 4.92869 4.10269 4.97489 4.12938L6.62269 5.08072C6.71524 5.13497 6.78257 5.22363 6.80999 5.32734C6.83741 5.43106 6.82269 5.54141 6.76905 5.63431C6.71541 5.72721 6.6272 5.79513 6.52367 5.82324C6.42014 5.85135 6.3097 5.83736 6.21644 5.78434L4.56864 4.833C4.47534 4.77913 4.40725 4.6904 4.37937 4.58633C4.35148 4.48226 4.36608 4.37137 4.41995 4.27807ZM3.20222 8.609C3.20222 8.50125 3.24502 8.39792 3.32121 8.32173C3.39739 8.24555 3.50072 8.20275 3.60847 8.20275H5.51114C5.73554 8.20275 5.91739 8.38464 5.91739 8.609C5.91739 8.83335 5.73554 9.01525 5.51114 9.01525H3.60847C3.50072 9.01525 3.39739 8.97244 3.32121 8.89626C3.24502 8.82007 3.20222 8.71674 3.20222 8.609ZM14.8243 3.03961L15.7757 1.39181C15.8023 1.3456 15.8378 1.3051 15.8802 1.27262C15.9225 1.24013 15.9708 1.21631 16.0223 1.2025C16.0739 1.18869 16.1276 1.18517 16.1805 1.19214C16.2334 1.19911 16.2844 1.21644 16.3306 1.24312C16.3768 1.2698 16.4173 1.30531 16.4498 1.34763C16.4823 1.38995 16.5061 1.43826 16.5199 1.48979C16.5337 1.54132 16.5372 1.59507 16.5303 1.64796C16.5233 1.70085 16.506 1.75186 16.4793 1.79806L15.5279 3.44586C15.5013 3.49208 15.4658 3.53259 15.4234 3.56508C15.3811 3.59756 15.3328 3.62139 15.2813 3.6352C15.2297 3.64901 15.176 3.65253 15.1231 3.64555C15.0702 3.63858 15.0192 3.62125 14.973 3.59455C14.8797 3.54067 14.8116 3.45193 14.7837 3.34786C14.7558 3.24379 14.7704 3.13291 14.8243 3.03961ZM17.1211 5.82085C17.0672 5.72754 17.0526 5.61666 17.0805 5.51259C17.1084 5.40852 17.1764 5.31979 17.2697 5.26591L18.9175 4.31458C19.0108 4.26156 19.1212 4.24757 19.2248 4.27568C19.3283 4.30379 19.4165 4.3717 19.4702 4.46461C19.5238 4.55751 19.5385 4.66786 19.5111 4.77158C19.4837 4.87529 19.4163 4.96395 19.3238 5.0182L17.676 5.96954C17.6298 5.99624 17.5788 6.01357 17.5259 6.02055C17.473 6.02753 17.4192 6.02401 17.3677 6.0102C17.3162 5.9964 17.2679 5.97257 17.2255 5.94007C17.1832 5.90758 17.1477 5.86707 17.1211 5.82085ZM18.2743 8.41659H20.177C20.4014 8.41659 20.5833 8.59848 20.5833 8.82284C20.5833 9.04719 20.4014 9.22909 20.177 9.22909H18.2743C18.1666 9.22909 18.0633 9.18628 17.9871 9.1101C17.9109 9.03391 17.8681 8.93058 17.8681 8.82284C17.8681 8.71509 17.9109 8.61176 17.9871 8.53557C18.0633 8.45939 18.1666 8.41659 18.2743 8.41659Z" fill="#4CD964"/>
</svg>
