<svg width="20" height="24" viewBox="0 0 20 24" fill="none" xmlns="http://www.w3.org/2000/svg">
<path d="M13.0635 8.69543C12.7531 8.69543 12.5014 8.94707 12.5014 9.25749V19.8804C12.5014 20.1907 12.7531 20.4425 13.0635 20.4425C13.374 20.4425 13.6256 20.1907 13.6256 19.8804V9.25749C13.6256 8.94707 13.374 8.69543 13.0635 8.69543ZM6.4312 8.69543C6.12077 8.69543 5.86914 8.94707 5.86914 9.25749V19.8804C5.86914 20.1907 6.12077 20.4425 6.4312 20.4425C6.74168 20.4425 6.99326 20.1907 6.99326 19.8804V9.25749C6.99326 8.94707 6.74168 8.69543 6.4312 8.69543Z" fill="#D80F0F"/>
<path d="M1.59633 7.14503V20.993C1.59633 21.8115 1.89647 22.5801 2.42076 23.1316C2.67892 23.4053 2.99015 23.6234 3.33543 23.7727C3.68072 23.922 4.05281 23.9993 4.429 24H15.0634C15.4396 23.9994 15.8117 23.922 16.157 23.7727C16.5023 23.6234 16.8135 23.4053 17.0716 23.1316C17.596 22.5801 17.8961 21.8115 17.8961 20.993V7.14503C18.9383 6.86839 19.6137 5.86151 19.4743 4.79208C19.3346 3.72282 18.4237 2.92301 17.3452 2.92278H14.4675V2.22021C14.4691 1.92773 14.4126 1.63785 14.3013 1.36739C14.1899 1.09693 14.026 0.851275 13.8189 0.644699C13.6118 0.438143 13.3657 0.274792 13.095 0.164131C12.8242 0.0534697 12.5342 -0.00229572 12.2417 7.28573e-05H7.25076C6.95826 -0.00230318 6.6682 0.0534586 6.39742 0.16412C6.12665 0.274781 5.88056 0.438136 5.67345 0.644699C5.4664 0.851275 5.30244 1.09693 5.19111 1.36739C5.07977 1.63785 5.02327 1.92773 5.02489 2.22021V2.92278H2.14726C1.06878 2.92301 0.157849 3.72282 0.0181774 4.79208C-0.121213 5.86151 0.554101 6.86839 1.59633 7.14503ZM15.0634 22.8759H4.42905C3.46804 22.8759 2.72045 22.0503 2.72045 20.993V7.19444H16.7719V20.993C16.7719 22.0504 16.0244 22.8759 15.0634 22.8759ZM6.14901 2.22021C6.14717 2.0753 6.17447 1.9315 6.22927 1.79734C6.28407 1.66319 6.36527 1.5414 6.46804 1.43923C6.57077 1.33699 6.69299 1.25643 6.82744 1.20231C6.96189 1.1482 7.10585 1.12163 7.25076 1.12419H12.2417C12.3866 1.12163 12.5305 1.1482 12.665 1.20231C12.7995 1.25643 12.9217 1.33699 13.0244 1.43923C13.1272 1.5414 13.2084 1.66318 13.2632 1.79734C13.318 1.9315 13.3452 2.0753 13.3434 2.22021V2.92278H6.14901V2.22021ZM2.14726 4.0469H17.3453C17.904 4.0469 18.357 4.49987 18.357 5.05861C18.357 5.61735 17.904 6.07032 17.3453 6.07032H2.1472C1.58846 6.07032 1.1355 5.61735 1.1355 5.05861C1.1355 4.49987 1.58852 4.0469 2.14726 4.0469Z" fill="#D80F0F"/>
<path d="M9.74565 8.69543C9.43523 8.69543 9.18359 8.94707 9.18359 9.25749V19.8804C9.18359 20.1907 9.43523 20.4425 9.74565 20.4425C10.0561 20.4425 10.3077 20.1907 10.3077 19.8804V9.25749C10.3077 8.94707 10.0561 8.69543 9.74565 8.69543Z" fill="#D80F0F"/>
</svg>
