<svg width="20" height="20" viewBox="0 0 20 20" fill="none" xmlns="http://www.w3.org/2000/svg">
<g clip-path="url(#clip0_1680_1973)">
<path d="M19.9965 6.66667H0V7.5C0 7.94203 0.175595 8.36595 0.488155 8.67851C0.800716 8.99107 1.22464 9.16667 1.66667 9.16667H4.16667C4.60869 9.16667 5.03262 8.99107 5.34518 8.67851C5.65774 8.36595 5.83333 7.94203 5.83333 7.5C5.83333 7.94203 6.00893 8.36595 6.32149 8.67851C6.63405 8.99107 7.05797 9.16667 7.5 9.16667H12.5C12.942 9.16667 13.3659 8.99107 13.6785 8.67851C13.9911 8.36595 14.1667 7.94203 14.1667 7.5C14.1667 7.94203 14.3423 8.36595 14.6548 8.67851C14.9674 8.99107 15.3913 9.16667 15.8333 9.16667H18.3333C18.7754 9.16667 19.1993 8.99107 19.5118 8.67851C19.8244 8.36595 20 7.94203 20 7.5V6.66667H19.9965ZM19.7952 5.83333L18.3013 0.604167C18.2515 0.430089 18.1463 0.276964 18.0018 0.167956C17.8572 0.0589485 17.6811 -1.00969e-05 17.5 1.29698e-09H13.6831L14.8498 5.83333H19.7952ZM6.31687 1.29698e-09H2.5C2.31894 -1.00969e-05 2.14281 0.0589485 1.99824 0.167956C1.85367 0.276964 1.74854 0.430089 1.69875 0.604167L0.204792 5.83333H5.15021L6.31687 1.29698e-09ZM11.9835 1.29698e-09H8.01646L6.84979 5.83333H13.1502L11.9835 1.29698e-09ZM15.8333 10C15.218 10.0005 14.6243 9.77319 14.1667 9.36187C13.709 9.77319 13.1153 10.0005 12.5 10H7.5C6.88469 10.0005 6.29097 9.77319 5.83333 9.36187C5.3757 9.77319 4.78198 10.0005 4.16667 10H1.66667C1.38259 9.9994 1.10073 9.95008 0.833333 9.85417V19.1667C0.833333 19.3877 0.921131 19.5996 1.07741 19.7559C1.23369 19.9122 1.44565 20 1.66667 20H3.33333V12.5C3.33333 12.279 3.42113 12.067 3.57741 11.9107C3.73369 11.7545 3.94565 11.6667 4.16667 11.6667H8.33333C8.55435 11.6667 8.76631 11.7545 8.92259 11.9107C9.07887 12.067 9.16667 12.279 9.16667 12.5V20H18.3333C18.5543 20 18.7663 19.9122 18.9226 19.7559C19.0789 19.5996 19.1667 19.3877 19.1667 19.1667V9.85417C18.8993 9.95008 18.6174 9.9994 18.3333 10H15.8333ZM16.6667 15C16.6667 15.221 16.5789 15.433 16.4226 15.5893C16.2663 15.7455 16.0543 15.8333 15.8333 15.8333H11.6667C11.4457 15.8333 11.2337 15.7455 11.0774 15.5893C10.9211 15.433 10.8333 15.221 10.8333 15V12.5C10.8333 12.279 10.9211 12.067 11.0774 11.9107C11.2337 11.7545 11.4457 11.6667 11.6667 11.6667H15.8333C16.0543 11.6667 16.2663 11.7545 16.4226 11.9107C16.5789 12.067 16.6667 12.279 16.6667 12.5V15Z" fill="white"/>
</g>
<defs>
<clipPath id="clip0_1680_1973">
<rect width="20" height="20" fill="white"/>
</clipPath>
</defs>
</svg>
