<svg width="19" height="21" viewBox="0 0 19 21" fill="none" xmlns="http://www.w3.org/2000/svg">
<path d="M14.0968 21C11.3888 21 9.19353 18.8509 9.19353 16.2C9.19353 13.549 11.3888 11.4 14.0968 11.4C16.8048 11.4 19 13.549 19 16.2C19 18.8509 16.8048 21 14.0968 21ZM16.8689 13.709L13.1851 17.3152L11.0182 15.1939L10.1514 16.0424L13.1851 19.0123L17.7357 14.5575L16.8689 13.709ZM10.1701 12H2.45165V13.2H9.15263C8.80607 13.7462 8.54808 14.3513 8.40598 15H2.45165V16.2H8.27422C8.27422 17.3023 8.59918 18.3278 9.1526 19.2H1.22581C0.548817 19.2 0 18.6627 0 18V1.19998C0 0.537236 0.548817 0 1.22581 0H13.7904L16.5484 2.7V11.0353C15.8025 10.6953 14.9739 10.5 14.0968 10.5C12.5815 10.5 11.206 11.0714 10.1701 12ZM2.45165 10.2H14.0968V8.99998H2.45165V10.2ZM2.45165 7.19999H14.0968V5.99996H2.45165V7.19999ZM11.6451 2.99997H2.45165V4.19997H11.6452L11.6451 2.99997ZM13.1774 0.599961V3.29996H15.9355L13.1774 0.599961Z" fill="white"/>
</svg>
