<svg width="24" height="24" viewBox="0 0 24 24" fill="none" xmlns="http://www.w3.org/2000/svg">
<path d="M3.21232 14.0601C2.91928 12.6755 2.93115 11.2743 3.21316 9.94038C4.32308 10.0711 5.29187 9.7035 5.60865 8.93871C5.92544 8.17392 5.50032 7.22896 4.62307 6.53655C5.3669 5.3939 6.34931 4.39471 7.53554 3.62289C8.228 4.50059 9.17324 4.92601 9.93822 4.60914C10.7032 4.29227 11.0708 3.32308 10.9398 2.21281C12.3243 1.91977 13.7255 1.93164 15.0595 2.21364C14.9288 3.32356 15.2964 4.29235 16.0612 4.60914C16.8259 4.92593 17.7709 4.5008 18.4633 3.62356C19.606 4.36739 20.6052 5.3498 21.377 6.53602C20.4993 7.22849 20.0739 8.17373 20.3907 8.93871C20.7076 9.70369 21.6768 10.0713 22.7871 9.94028C23.0801 11.3248 23.0682 12.726 22.7862 14.06C21.6763 13.9293 20.7075 14.2969 20.3907 15.0616C20.0739 15.8264 20.4991 16.7714 21.3763 17.4638C20.6325 18.6064 19.6501 19.6056 18.4638 20.3775C17.7714 19.4998 16.8261 19.0743 16.0612 19.3912C15.2962 19.7081 14.9286 20.6773 15.0596 21.7875C13.675 22.0806 12.2738 22.0687 10.9399 21.7867C11.0706 20.6768 10.703 19.708 9.93822 19.3912C9.17343 19.0744 8.22848 19.4995 7.53606 20.3768C6.39341 19.633 5.39422 18.6506 4.62241 17.4643C5.5001 16.7719 5.92552 15.8266 5.60865 15.0616C5.29179 14.2967 4.32259 13.9291 3.21232 14.0601ZM4.99975 12.2104C6.09956 12.5148 7.00718 13.2117 7.45641 14.2963C7.90564 15.3808 7.75667 16.5154 7.19421 17.5083C7.29077 17.61 7.38998 17.7092 7.49173 17.8056C8.4846 17.2432 9.61912 17.0943 10.7036 17.5435C11.7881 17.9927 12.485 18.9002 12.7894 19.9999C12.9295 20.0037 13.0697 20.0038 13.2099 20.0001C13.5143 18.9003 14.2112 17.9927 15.2958 17.5435C16.3803 17.0942 17.5149 17.2432 18.5078 17.8057C18.6096 17.7091 18.7087 17.6099 18.8051 17.5081C18.2427 16.5153 18.0938 15.3807 18.543 14.2963C18.9922 13.2118 19.8997 12.5149 20.9994 12.2105C21.0032 12.0704 21.0033 11.9301 20.9996 11.7899C19.8998 11.4856 18.9922 10.7886 18.543 9.70407C18.0937 8.61953 18.2427 7.48494 18.8052 6.49204C18.7086 6.39031 18.6094 6.2912 18.5076 6.19479C17.5148 6.75717 16.3803 6.9061 15.2958 6.4569C14.2113 6.0077 13.5144 5.10016 13.21 4.00044C13.0699 3.99666 12.9297 3.99659 12.7894 4.00024C12.4851 5.10005 11.7881 6.00767 10.7036 6.4569C9.61904 6.90613 8.48446 6.75715 7.49155 6.1947C7.38982 6.29126 7.29071 6.39047 7.19431 6.49222C7.75668 7.48509 7.90561 8.61961 7.45641 9.70407C7.00721 10.7885 6.09967 11.4855 4.99995 11.7899C4.99617 11.93 4.9961 12.0702 4.99975 12.2104ZM12.9997 15.0002C11.3428 15.0002 9.99969 13.657 9.99969 12.0002C9.99969 10.3433 11.3428 9.00018 12.9997 9.00018C14.6565 9.00018 15.9997 10.3433 15.9997 12.0002C15.9997 13.657 14.6565 15.0002 12.9997 15.0002ZM12.9997 13.0002C13.552 13.0002 13.9997 12.5525 13.9997 12.0002C13.9997 11.4479 13.552 11.0002 12.9997 11.0002C12.4474 11.0002 11.9997 11.4479 11.9997 12.0002C11.9997 12.5525 12.4474 13.0002 12.9997 13.0002Z" fill="#6A5ECC"/>
</svg>
