<svg width="26" height="26" viewBox="0 0 26 26" fill="none" xmlns="http://www.w3.org/2000/svg">
<path d="M9.7 1.9L6.85 0L4 1.9V16.15C4 17.7241 5.27599 19 6.85 19H20.15C21.7241 19 23 17.7241 23 16.15V13.3H21.1V1.9L18.25 0L15.4 1.9L12.55 0L9.7 1.9ZM19.2 13.3H7.8V16.15C7.8 16.6747 7.37467 17.1 6.85 17.1C6.32533 17.1 5.9 16.6747 5.9 16.15V2.91685L6.85 2.28351L9.7 4.18351L12.55 2.28351L15.4 4.18351L18.25 2.28351L19.2 2.91685V13.3ZM20.15 17.1H9.53783C9.64286 16.8028 9.7 16.4831 9.7 16.15V15.2H21.1V16.15C21.1 16.6747 20.6747 17.1 20.15 17.1Z" fill="#6A5ECC"/>
</svg>
