<svg width="30" height="30" viewBox="0 0 30 30" fill="none" xmlns="http://www.w3.org/2000/svg">
<path d="M8.68372 22.0001C8.5485 22.0001 8.41631 21.96 8.30387 21.8849C8.19143 21.8098 8.10379 21.703 8.05204 21.5781C8.00029 21.4532 7.98676 21.3157 8.01314 21.1831C8.03953 21.0505 8.10466 20.9287 8.20028 20.8331L20.8331 8.20025C20.9613 8.07203 21.1352 8 21.3165 8C21.4979 8 21.6718 8.07203 21.8 8.20025C21.9282 8.32846 22.0002 8.50236 22.0002 8.68368C22.0002 8.86501 21.9282 9.03891 21.8 9.16712L9.16716 21.7999C9.10373 21.8635 9.02837 21.9139 8.94541 21.9482C8.86245 21.9826 8.77351 22.0002 8.68372 22.0001Z" fill="#F4F5F7"/>
<path d="M21.3165 22.0001C21.2267 22.0002 21.1378 21.9826 21.0548 21.9482C20.9718 21.9139 20.8965 21.8635 20.8331 21.7999L8.20025 9.16712C8.07203 9.03891 8 8.86501 8 8.68368C8 8.50236 8.07203 8.32846 8.20025 8.20025C8.32846 8.07203 8.50236 8 8.68368 8C8.86501 8 9.03891 8.07203 9.16712 8.20025L21.7999 20.8331C21.8956 20.9287 21.9607 21.0505 21.9871 21.1831C22.0135 21.3157 21.9999 21.4532 21.9482 21.5781C21.8964 21.703 21.8088 21.8098 21.6963 21.8849C21.5839 21.96 21.4517 22.0001 21.3165 22.0001Z" fill="#F4F5F7"/>
</svg>
